ffmpeg version 8.1-essentials_build-www.gyan.dev Copyright (c) 2000-2026 the FFmpeg developers
  built with gcc 15.2.0 (Rev11, Built by MSYS2 project)
  configuration: --enable-gpl --enable-version3 --enable-static --disable-w32threads --disable-autodetect --enable-cairo --enable-fontconfig --enable-iconv --enable-gnutls --enable-libxml2 --enable-gmp --enable-bzlib --enable-lzma --enable-zlib --enable-libsrt --enable-libssh --enable-libzmq --enable-avisynth --enable-sdl2 --enable-libwebp --enable-libx264 --enable-libx265 --enable-libxvid --enable-libaom --enable-libopenjpeg --enable-libvpx --enable-mediafoundation --enable-libass --enable-libfreetype --enable-libfribidi --enable-libharfbuzz --enable-libvidstab --enable-libvmaf --enable-libzimg --enable-amf --enable-cuda-llvm --enable-cuvid --enable-dxva2 --enable-d3d11va --enable-d3d12va --enable-ffnvcodec --enable-libvpl --enable-nvdec --enable-nvenc --enable-vaapi --enable-openal --enable-libgme --enable-libopenmpt --enable-libopencore-amrwb --enable-libmp3lame --enable-libtheora --enable-libvo-amrwbenc --enable-libgsm --enable-libopencore-amrnb --enable-libopus --enable-libspeex --enable-libvorbis --enable-librubberband
  libavutil      60. 26.100 / 60. 26.100
  libavcodec     62. 28.100 / 62. 28.100
  libavformat    62. 12.100 / 62. 12.100
  libavdevice    62.  3.100 / 62.  3.100
  libavfilter    11. 14.100 / 11. 14.100
  libswscale      9.  5.100 /  9.  5.100
  libswresample   6.  3.100 /  6.  3.100
Input #0, mov,mp4,m4a,3gp,3g2,mj2, from 'F:\Antigravity Projeler\2d roguelite\RIMA\STAGING\twitter_research\2054929730810564818\twitter\BEHEMUTT\2054929730810564818_1.mp4':
  Metadata:
    major_brand     : isom
    minor_version   : 1
    compatible_brands: isomiso4
    creation_time   : 2026-05-14T14:20:16.000000Z
  Duration: 00:00:58.51, start: 0.000000, bitrate: 2601 kb/s
  Stream #0:0[0x1](und): Video: h264 (High) (avc1 / 0x31637661), yuv420p(progressive), 1920x1080, 2463 kb/s, SAR 1:1 DAR 16:9, 60 fps, 60 tbr, 6000k tbn (default)
    Metadata:
      handler_name    : Twitter-vork muxer
  Stream #0:1[0x2](und): Audio: aac (LC) (mp4a / 0x6134706D), 44100 Hz, stereo, fltp, 128 kb/s (default)
    Metadata:
      handler_name    : Twitter-vork muxer
Stream mapping:
  Stream #0:0 -> #0:0 (h264 (native) -> png (native))
Press [q] to stop, [?] for help
Output #0, image2, to 'STAGING\twitter_research\2054929730810564818\frames\frame_%03d.png':
  Metadata:
    major_brand     : isom
    minor_version   : 1
    compatible_brands: isomiso4
    encoder         : Lavf62.12.100
  Stream #0:0(und): Video: png, rgb24(pc, gbr/unknown/unknown, progressive), 1920x1080 [SAR 1:1 DAR 16:9], q=2-31, 200 kb/s, 0.20 fps, 0.20 tbn (default)
    Metadata:
      encoder         : Lavc62.28.100 png
      handler_name    : Twitter-vork muxer
frame=    3 fps=0.0 q=-0.0 size=N/A time=00:00:15.00 bitrate=N/A speed=29.4x elapsed=0:00:00.50    
frame=    8 fps=7.8 q=-0.0 size=N/A time=00:00:40.00 bitrate=N/A speed=  39x elapsed=0:00:01.02    
[out#0/image2 @ 000001ed8cf6ee80] video:20401KiB audio:0KiB subtitle:0KiB other streams:0KiB global headers:0KiB muxing overhead: unknown
frame=   12 fps=9.2 q=-0.0 Lsize=N/A time=00:01:00.00 bitrate=N/A speed=45.9x elapsed=0:00:01.30    
